<mxfile host="app.diagrams.net" modified="2022-10-25T05:36:59.023Z" agent="5.0 (Macintosh; Intel Mac OS X 10_15_7) AppleWebKit/537.36 (KHTML, like Gecko) Chrome/106.0.0.0 Safari/537.36" etag="MrnDY2Cy14CKYWsKTMXZ" version="20.5.0" type="github">
  <diagram id="1ZU6nqE6PjN8dN5hzKM5" name="Страница 1">
    <mxGraphModel dx="789" dy="692" grid="1" gridSize="10" guides="1" tooltips="1" connect="1" arrows="1" fold="1" page="1" pageScale="1" pageWidth="827" pageHeight="1169" math="0" shadow="0">
      <root>
        <mxCell id="0" />
        <mxCell id="1" parent="0" />
        <mxCell id="_biEWtAUGlpohB7jtDZ2-12" style="edgeStyle=orthogonalEdgeStyle;rounded=0;orthogonalLoop=1;jettySize=auto;html=1;exitX=1;exitY=0.5;exitDx=0;exitDy=0;entryX=0;entryY=0.5;entryDx=0;entryDy=0;" edge="1" parent="1" source="_biEWtAUGlpohB7jtDZ2-1" target="_biEWtAUGlpohB7jtDZ2-2">
          <mxGeometry relative="1" as="geometry" />
        </mxCell>
        <mxCell id="_biEWtAUGlpohB7jtDZ2-1" value="Консультация со специалистами (0.5 мес)" style="rounded=1;whiteSpace=wrap;html=1;fillColor=#d5e8d4;strokeColor=#82b366;" vertex="1" parent="1">
          <mxGeometry x="270" y="330" width="170" height="60" as="geometry" />
        </mxCell>
        <mxCell id="_biEWtAUGlpohB7jtDZ2-13" style="edgeStyle=orthogonalEdgeStyle;rounded=0;orthogonalLoop=1;jettySize=auto;html=1;exitX=1;exitY=0.5;exitDx=0;exitDy=0;entryX=0;entryY=0.5;entryDx=0;entryDy=0;" edge="1" parent="1" source="_biEWtAUGlpohB7jtDZ2-2" target="_biEWtAUGlpohB7jtDZ2-10">
          <mxGeometry relative="1" as="geometry" />
        </mxCell>
        <mxCell id="_biEWtAUGlpohB7jtDZ2-15" style="edgeStyle=orthogonalEdgeStyle;rounded=0;orthogonalLoop=1;jettySize=auto;html=1;exitX=1;exitY=0.25;exitDx=0;exitDy=0;entryX=0;entryY=0.5;entryDx=0;entryDy=0;" edge="1" parent="1" source="_biEWtAUGlpohB7jtDZ2-2" target="_biEWtAUGlpohB7jtDZ2-8">
          <mxGeometry relative="1" as="geometry">
            <Array as="points">
              <mxPoint x="630" y="130" />
            </Array>
          </mxGeometry>
        </mxCell>
        <mxCell id="_biEWtAUGlpohB7jtDZ2-16" style="edgeStyle=orthogonalEdgeStyle;rounded=0;orthogonalLoop=1;jettySize=auto;html=1;exitX=0.75;exitY=0;exitDx=0;exitDy=0;entryX=0;entryY=0.5;entryDx=0;entryDy=0;" edge="1" parent="1" source="_biEWtAUGlpohB7jtDZ2-2" target="_biEWtAUGlpohB7jtDZ2-3">
          <mxGeometry relative="1" as="geometry" />
        </mxCell>
        <mxCell id="_biEWtAUGlpohB7jtDZ2-2" value="Проектирование архитектуры (0.5 мес)" style="rounded=1;whiteSpace=wrap;html=1;fillColor=#d5e8d4;strokeColor=#82b366;" vertex="1" parent="1">
          <mxGeometry x="480" y="330" width="150" height="60" as="geometry" />
        </mxCell>
        <mxCell id="_biEWtAUGlpohB7jtDZ2-23" style="edgeStyle=orthogonalEdgeStyle;rounded=0;orthogonalLoop=1;jettySize=auto;html=1;exitX=1;exitY=0.5;exitDx=0;exitDy=0;entryX=0.5;entryY=0;entryDx=0;entryDy=0;" edge="1" parent="1" source="_biEWtAUGlpohB7jtDZ2-3" target="_biEWtAUGlpohB7jtDZ2-11">
          <mxGeometry relative="1" as="geometry" />
        </mxCell>
        <mxCell id="_biEWtAUGlpohB7jtDZ2-3" value="Создание модуля ИИ (1.5 мес)" style="rounded=1;whiteSpace=wrap;html=1;" vertex="1" parent="1">
          <mxGeometry x="860" y="20" width="170" height="60" as="geometry" />
        </mxCell>
        <mxCell id="_biEWtAUGlpohB7jtDZ2-28" style="edgeStyle=orthogonalEdgeStyle;rounded=0;orthogonalLoop=1;jettySize=auto;html=1;exitX=1;exitY=0.5;exitDx=0;exitDy=0;entryX=0;entryY=0.75;entryDx=0;entryDy=0;" edge="1" parent="1" source="_biEWtAUGlpohB7jtDZ2-4" target="_biEWtAUGlpohB7jtDZ2-11">
          <mxGeometry relative="1" as="geometry" />
        </mxCell>
        <mxCell id="_biEWtAUGlpohB7jtDZ2-4" value="Создание мобильного приложения (Android) (1 мес)" style="rounded=1;whiteSpace=wrap;html=1;" vertex="1" parent="1">
          <mxGeometry x="860" y="395" width="170" height="60" as="geometry" />
        </mxCell>
        <mxCell id="_biEWtAUGlpohB7jtDZ2-27" style="edgeStyle=orthogonalEdgeStyle;rounded=0;orthogonalLoop=1;jettySize=auto;html=1;exitX=1;exitY=0.5;exitDx=0;exitDy=0;entryX=0;entryY=0.5;entryDx=0;entryDy=0;" edge="1" parent="1" source="_biEWtAUGlpohB7jtDZ2-5" target="_biEWtAUGlpohB7jtDZ2-11">
          <mxGeometry relative="1" as="geometry" />
        </mxCell>
        <mxCell id="_biEWtAUGlpohB7jtDZ2-5" value="Создание мобильного приложения (iOS) (1 мес)" style="rounded=1;whiteSpace=wrap;html=1;" vertex="1" parent="1">
          <mxGeometry x="860" y="325" width="170" height="60" as="geometry" />
        </mxCell>
        <mxCell id="_biEWtAUGlpohB7jtDZ2-26" style="edgeStyle=orthogonalEdgeStyle;rounded=0;orthogonalLoop=1;jettySize=auto;html=1;exitX=1;exitY=0.5;exitDx=0;exitDy=0;entryX=0;entryY=0.25;entryDx=0;entryDy=0;" edge="1" parent="1" source="_biEWtAUGlpohB7jtDZ2-6" target="_biEWtAUGlpohB7jtDZ2-11">
          <mxGeometry relative="1" as="geometry" />
        </mxCell>
        <mxCell id="_biEWtAUGlpohB7jtDZ2-6" value="Создание мобильного приложения (CarPlay) (1.5 мес)" style="rounded=1;whiteSpace=wrap;html=1;fillColor=#d5e8d4;strokeColor=#82b366;" vertex="1" parent="1">
          <mxGeometry x="860" y="255" width="170" height="60" as="geometry" />
        </mxCell>
        <mxCell id="_biEWtAUGlpohB7jtDZ2-25" style="edgeStyle=orthogonalEdgeStyle;rounded=0;orthogonalLoop=1;jettySize=auto;html=1;exitX=1;exitY=0.5;exitDx=0;exitDy=0;entryX=0;entryY=0;entryDx=0;entryDy=0;" edge="1" parent="1" source="_biEWtAUGlpohB7jtDZ2-7" target="_biEWtAUGlpohB7jtDZ2-11">
          <mxGeometry relative="1" as="geometry" />
        </mxCell>
        <mxCell id="_biEWtAUGlpohB7jtDZ2-7" value="Создание мобильного приложения (Android Auto) (1.5 мес)" style="rounded=1;whiteSpace=wrap;html=1;fillColor=#d5e8d4;strokeColor=#82b366;" vertex="1" parent="1">
          <mxGeometry x="860" y="185" width="170" height="60" as="geometry" />
        </mxCell>
        <mxCell id="_biEWtAUGlpohB7jtDZ2-24" style="edgeStyle=orthogonalEdgeStyle;rounded=0;orthogonalLoop=1;jettySize=auto;html=1;exitX=1;exitY=0.5;exitDx=0;exitDy=0;entryX=0.25;entryY=0;entryDx=0;entryDy=0;" edge="1" parent="1" source="_biEWtAUGlpohB7jtDZ2-8" target="_biEWtAUGlpohB7jtDZ2-11">
          <mxGeometry relative="1" as="geometry" />
        </mxCell>
        <mxCell id="_biEWtAUGlpohB7jtDZ2-8" value="Разработка веб-сервиса (backend) (1 мес)" style="rounded=1;whiteSpace=wrap;html=1;" vertex="1" parent="1">
          <mxGeometry x="860" y="100" width="170" height="60" as="geometry" />
        </mxCell>
        <mxCell id="_biEWtAUGlpohB7jtDZ2-29" style="edgeStyle=orthogonalEdgeStyle;rounded=0;orthogonalLoop=1;jettySize=auto;html=1;exitX=1;exitY=0.5;exitDx=0;exitDy=0;" edge="1" parent="1" source="_biEWtAUGlpohB7jtDZ2-9">
          <mxGeometry relative="1" as="geometry">
            <mxPoint x="1120" y="390" as="targetPoint" />
          </mxGeometry>
        </mxCell>
        <mxCell id="_biEWtAUGlpohB7jtDZ2-9" value="Разработка веб-сервиса (frontend) (1 мес)" style="rounded=1;whiteSpace=wrap;html=1;" vertex="1" parent="1">
          <mxGeometry x="860" y="475" width="170" height="60" as="geometry" />
        </mxCell>
        <mxCell id="_biEWtAUGlpohB7jtDZ2-18" style="edgeStyle=orthogonalEdgeStyle;rounded=0;orthogonalLoop=1;jettySize=auto;html=1;exitX=1;exitY=0.5;exitDx=0;exitDy=0;" edge="1" parent="1" source="_biEWtAUGlpohB7jtDZ2-10" target="_biEWtAUGlpohB7jtDZ2-5">
          <mxGeometry relative="1" as="geometry" />
        </mxCell>
        <mxCell id="_biEWtAUGlpohB7jtDZ2-19" style="edgeStyle=orthogonalEdgeStyle;rounded=0;orthogonalLoop=1;jettySize=auto;html=1;exitX=1;exitY=0.25;exitDx=0;exitDy=0;entryX=-0.006;entryY=0.397;entryDx=0;entryDy=0;entryPerimeter=0;" edge="1" parent="1" source="_biEWtAUGlpohB7jtDZ2-10" target="_biEWtAUGlpohB7jtDZ2-6">
          <mxGeometry relative="1" as="geometry" />
        </mxCell>
        <mxCell id="_biEWtAUGlpohB7jtDZ2-20" style="edgeStyle=orthogonalEdgeStyle;rounded=0;orthogonalLoop=1;jettySize=auto;html=1;exitX=1;exitY=0;exitDx=0;exitDy=0;entryX=0;entryY=0.5;entryDx=0;entryDy=0;" edge="1" parent="1" source="_biEWtAUGlpohB7jtDZ2-10" target="_biEWtAUGlpohB7jtDZ2-7">
          <mxGeometry relative="1" as="geometry" />
        </mxCell>
        <mxCell id="_biEWtAUGlpohB7jtDZ2-21" style="edgeStyle=orthogonalEdgeStyle;rounded=0;orthogonalLoop=1;jettySize=auto;html=1;exitX=1;exitY=0.75;exitDx=0;exitDy=0;entryX=0;entryY=0.5;entryDx=0;entryDy=0;" edge="1" parent="1" source="_biEWtAUGlpohB7jtDZ2-10" target="_biEWtAUGlpohB7jtDZ2-4">
          <mxGeometry relative="1" as="geometry" />
        </mxCell>
        <mxCell id="_biEWtAUGlpohB7jtDZ2-22" style="edgeStyle=orthogonalEdgeStyle;rounded=0;orthogonalLoop=1;jettySize=auto;html=1;exitX=1;exitY=1;exitDx=0;exitDy=0;entryX=0;entryY=0.75;entryDx=0;entryDy=0;" edge="1" parent="1" source="_biEWtAUGlpohB7jtDZ2-10" target="_biEWtAUGlpohB7jtDZ2-9">
          <mxGeometry relative="1" as="geometry" />
        </mxCell>
        <mxCell id="_biEWtAUGlpohB7jtDZ2-10" value="Разработка дизайна (0.5 мес)" style="rounded=1;whiteSpace=wrap;html=1;fillColor=#d5e8d4;strokeColor=#82b366;" vertex="1" parent="1">
          <mxGeometry x="670" y="330" width="150" height="60" as="geometry" />
        </mxCell>
        <mxCell id="_biEWtAUGlpohB7jtDZ2-11" value="Тестирование и введение в эксплутацию (0.5 мес)" style="rounded=1;whiteSpace=wrap;html=1;fillColor=#d5e8d4;strokeColor=#82b366;" vertex="1" parent="1">
          <mxGeometry x="1110" y="325" width="150" height="60" as="geometry" />
        </mxCell>
      </root>
    </mxGraphModel>
  </diagram>
</mxfile>
